<?xml version="1.0" encoding="utf-8"?>
<!-- Generator: Adobe Illustrator 16.0.0, SVG Export Plug-In . SVG Version: 6.00 Build 0)  -->
<!DOCTYPE svg PUBLIC "-//W3C//DTD SVG 1.1//EN" "http://www.w3.org/Graphics/SVG/1.1/DTD/svg11.dtd">
<svg version="1.1" xmlns="http://www.w3.org/2000/svg" xmlns:xlink="http://www.w3.org/1999/xlink" x="0px" y="0px"
	 width="220.489px" height="248.987px" viewBox="0 0 220.489 248.987" enable-background="new 0 0 220.489 248.987"
	 xml:space="preserve">
<g id="Layer_1">
</g>
<g id="Layer_2">
	<g>
		<path fill-rule="evenodd" clip-rule="evenodd" d="M26.597,234.773c1.648-1.253,3.245-2.585,4.955-3.747
			c62.532-42.345,86.01-83.521,89.932-117.507c3.663-33.437-11.508-65.222-33.383-78.143c-11.05-6.527-21.663-8.059-33.441-3.301
			c-4.901,1.981-9.262,4.498-12.349,8.889c-4.159,5.915-3.42,11.288,2.224,15.836c3.039,2.449,6.502,4.143,10.264,5.107
			c12.918,3.313,21.66,14.69,21.358,27.925c-0.299,13.156-9.504,24.229-22.38,26.949c-15.509,3.262-38.434-6.118-35.536-44.314
			c1.2-15.817,7.267-28.845,19.765-38.727c9.814-7.766,21.127-11.835,33.419-13.54c15.052-2.083,29.37-0.084,42.638,7.625
			c10.43,6.062,18.574,14.493,24.799,24.776c5.734,9.481,9.374,19.753,10.627,30.747c1.129,9.865,0.751,19.73-1.146,29.517
			c-13.082,57.035-69.429,104.352-121.441,122.564C26.8,235.214,26.699,234.999,26.597,234.773z"/>
		<path fill-rule="evenodd" clip-rule="evenodd" d="M204.244,61.374c0,12.131-9.838,21.968-21.966,21.968
			c-12.134,0-21.971-9.837-21.971-21.968c0-12.131,9.837-21.965,21.971-21.965C194.406,39.409,204.244,49.243,204.244,61.374z"/>
		<path fill-rule="evenodd" clip-rule="evenodd" d="M204.244,121.756c0,12.131-9.838,21.968-21.966,21.968
			c-12.134,0-21.971-9.837-21.971-21.968c0-12.131,9.837-21.965,21.971-21.965C194.406,99.791,204.244,109.625,204.244,121.756z"/>
	</g>
</g>
<g id="Layer_3">
</g>
<g id="Layer_4">
</g>
</svg>
