<?xml version="1.0" encoding="UTF-8" standalone="no"?>
<!-- Created with Inkscape (http://www.inkscape.org/) -->

<svg
   xmlns:dc="http://purl.org/dc/elements/1.1/"
   xmlns:cc="http://creativecommons.org/ns#"
   xmlns:rdf="http://www.w3.org/1999/02/22-rdf-syntax-ns#"
   xmlns:svg="http://www.w3.org/2000/svg"
   xmlns="http://www.w3.org/2000/svg"
   version="1.1"
   width="744.09448"
   height="1052.3622"
   id="svg3953">
  <defs
     id="defs3955" />
  <metadata
     id="metadata3958">
    <rdf:RDF>
      <cc:Work
         rdf:about="">
        <dc:format>image/svg+xml</dc:format>
        <dc:type
           rdf:resource="http://purl.org/dc/dcmitype/StillImage" />
        <dc:title></dc:title>
      </cc:Work>
    </rdf:RDF>
  </metadata>
  <g
     id="layer1">
    <path
       d="m 331.5625,367.03125 c -3.21692,0.0511 -6.47258,0.51585 -9.71875,1.40625 -20.7755,5.69859 -33.01109,27.162 -27.3125,47.9375 l 0.0625,0.21875 c 4.97281,17.733 21.44364,29.17475 39.09375,28.46875 13.78586,1.0992 86.53249,8.03512 109,-43.59375 l 6.46875,-29.15625 c -25.17371,51.71572 -68.22557,42.144 -78,34.84375 0.10383,-3.75636 -0.32949,-7.59459 -1.375,-11.40625 -4.80819,-17.52933 -20.84738,-28.99468 -38.21875,-28.71875 z m 120.78125,10 L 395.125,637 l 3.75,0.84375 57.25,-259.96875 -3.78125,-0.84375 z"
       id="rect4473"
       style="fill:#000000;fill-opacity:1;stroke:#000000;stroke-width:8;stroke-linejoin:miter;stroke-miterlimit:4;stroke-opacity:1;stroke-dasharray:none" />
  </g>
</svg>
