<?xml version="1.0" encoding="UTF-8" standalone="no"?>
<!-- Created with Inkscape (http://www.inkscape.org/) -->

<svg
   xmlns:dc="http://purl.org/dc/elements/1.1/"
   xmlns:cc="http://creativecommons.org/ns#"
   xmlns:rdf="http://www.w3.org/1999/02/22-rdf-syntax-ns#"
   xmlns:svg="http://www.w3.org/2000/svg"
   xmlns="http://www.w3.org/2000/svg"
   xmlns:sodipodi="http://sodipodi.sourceforge.net/DTD/sodipodi-0.dtd"
   xmlns:inkscape="http://www.inkscape.org/namespaces/inkscape"
   width="744.09448819"
   height="1052.3622047"
   id="svg3107"
   version="1.1"
   inkscape:version="0.48.2 r9819"
   sodipodi:docname="flat.svg">
  <defs
     id="defs3109" />
  <sodipodi:namedview
     id="base"
     pagecolor="#ffffff"
     bordercolor="#666666"
     borderopacity="1.0"
     inkscape:pageopacity="0.0"
     inkscape:pageshadow="2"
     inkscape:zoom="1.02"
     inkscape:cx="525.04485"
     inkscape:cy="328.64963"
     inkscape:document-units="px"
     inkscape:current-layer="layer1"
     showgrid="true"
     inkscape:snap-global="false"
     inkscape:window-width="1280"
     inkscape:window-height="752"
     inkscape:window-x="0"
     inkscape:window-y="0"
     inkscape:window-maximized="1">
    <inkscape:grid
       type="xygrid"
       id="grid3115" />
  </sodipodi:namedview>
  <metadata
     id="metadata3112">
    <rdf:RDF>
      <cc:Work
         rdf:about="">
        <dc:format>image/svg+xml</dc:format>
        <dc:type
           rdf:resource="http://purl.org/dc/dcmitype/StillImage" />
      </cc:Work>
    </rdf:RDF>
  </metadata>
  <g
     inkscape:label="Layer 1"
     inkscape:groupmode="layer"
     id="layer1">
    <path
       style="fill:#000000"
       d="M 270.0625 502.1875 L 270.0625 981.375 L 275.1875 981.375 C 341.22325 981.63816 411.07737 984.21873 488.46875 955.21875 C 565.81293 926.23646 579.39846 842.40128 537.8125 805.1875 C 519.61864 788.90647 492.2651 781.04412 461.46875 781.1875 C 421.87346 781.37184 380.48183 793.60812 337.875 820.4375 C 312.66308 836.31336 297.04457 853.40623 287.3125 870.78125 L 287.3125 502.1875 L 270.0625 502.1875 z M 436.25 820.28125 C 458.2037 820.17209 477.68645 826.13604 490.65625 838.53125 C 520.30153 866.86315 522.6256 933.03459 455.5 952.78125 C 399.61044 969.22254 351.73157 977.57894 309.28125 960.9375 C 290.88836 948.61573 300.26061 884.07687 348.15625 850.15625 C 375.7586 830.60773 408.02381 820.42159 436.25 820.28125 z "
       id="rect3123" />
  </g>
</svg>
