<?xml version="1.0" encoding="UTF-8" standalone="no"?>
<!-- Created with Inkscape (http://www.inkscape.org/) -->

<svg
   xmlns:dc="http://purl.org/dc/elements/1.1/"
   xmlns:cc="http://creativecommons.org/ns#"
   xmlns:rdf="http://www.w3.org/1999/02/22-rdf-syntax-ns#"
   xmlns:svg="http://www.w3.org/2000/svg"
   xmlns="http://www.w3.org/2000/svg"
   xmlns:sodipodi="http://sodipodi.sourceforge.net/DTD/sodipodi-0.dtd"
   xmlns:inkscape="http://www.inkscape.org/namespaces/inkscape"
   width="293"
   height="479"
   id="svg3107"
   version="1.1"
   inkscape:version="0.48.2 r9819"
   sodipodi:docname="flat.svg">
  <defs
     id="defs3109" />
  <sodipodi:namedview
     id="base"
     pagecolor="#ffffff"
     bordercolor="#666666"
     borderopacity="1.0"
     inkscape:pageopacity="0.0"
     inkscape:pageshadow="2"
     inkscape:zoom="0.68"
     inkscape:cx="168.66502"
     inkscape:cy="245.395"
     inkscape:document-units="px"
     inkscape:current-layer="layer1"
     showgrid="true"
     inkscape:snap-global="false"
     inkscape:window-width="1280"
     inkscape:window-height="752"
     inkscape:window-x="0"
     inkscape:window-y="0"
     inkscape:window-maximized="1">
    <inkscape:grid
       type="xygrid"
       id="grid3115"
       empspacing="5"
       visible="true"
       enabled="true"
       snapvisiblegridlinesonly="true" />
  </sodipodi:namedview>
  <metadata
     id="metadata3112">
    <rdf:RDF>
      <cc:Work
         rdf:about="">
        <dc:format>image/svg+xml</dc:format>
        <dc:type
           rdf:resource="http://purl.org/dc/dcmitype/StillImage" />
      </cc:Work>
    </rdf:RDF>
  </metadata>
  <g
     inkscape:label="Layer 1"
     inkscape:groupmode="layer"
     id="layer1"
     transform="translate(0,-573.36218)">
    <path
       style="fill:#000000"
       d="m 2.3462107,573.16208 0,479.18742 5.125,0 c 66.0357503,0.2632 135.8898693,2.8438 213.2812493,-26.1562 77.34418,-28.98226 90.92971,-112.81744 49.34375,-150.03122 -18.19386,-16.28103 -45.5474,-24.14338 -76.34375,-24 -39.59529,0.18434 -80.98692,12.42062 -123.593749,39.25 -25.21192,15.87586 -40.83043,32.96873 -50.5625,50.34375 l 0,-368.59375 -17.2500003,0 z M 168.53371,891.25583 c 21.9537,-0.10916 41.43645,5.85479 54.40625,18.25 29.64528,28.3319 31.96935,94.50327 -35.15625,114.24997 -55.88956,16.4413 -103.768429,24.7977 -146.218749,8.1562 -18.39289,-12.3217 -9.02064,-76.86055 38.875,-110.78117 27.602349,-19.54852 59.867559,-29.73466 88.093749,-29.875 z"
       id="rect3123"
       inkscape:connector-curvature="0" />
  </g>
</svg>
