<?xml version="1.0" encoding="UTF-8" standalone="no"?>
<!-- Created with Inkscape (http://www.inkscape.org/) -->

<svg
   xmlns:dc="http://purl.org/dc/elements/1.1/"
   xmlns:cc="http://creativecommons.org/ns#"
   xmlns:rdf="http://www.w3.org/1999/02/22-rdf-syntax-ns#"
   xmlns:svg="http://www.w3.org/2000/svg"
   xmlns="http://www.w3.org/2000/svg"
   xmlns:sodipodi="http://sodipodi.sourceforge.net/DTD/sodipodi-0.dtd"
   xmlns:inkscape="http://www.inkscape.org/namespaces/inkscape"
   version="1.1"
   width="208"
   height="686"
   id="svg2"
   inkscape:version="0.48.2 r9819"
   sodipodi:docname="QuarterRest.svg">
  <sodipodi:namedview
     pagecolor="#ffffff"
     bordercolor="#666666"
     borderopacity="1"
     objecttolerance="10"
     gridtolerance="10"
     guidetolerance="10"
     inkscape:pageopacity="0"
     inkscape:pageshadow="2"
     inkscape:window-width="1280"
     inkscape:window-height="752"
     id="namedview3262"
     showgrid="false"
     inkscape:zoom="0.89"
     inkscape:cx="76.282043"
     inkscape:cy="508.8843"
     inkscape:window-x="0"
     inkscape:window-y="0"
     inkscape:window-maximized="1"
     inkscape:current-layer="svg2" />
  <defs
     id="defs4" />
  <metadata
     id="metadata7">
    <rdf:RDF>
      <cc:Work
         rdf:about="">
        <dc:format>image/svg+xml</dc:format>
        <dc:type
           rdf:resource="http://purl.org/dc/dcmitype/StillImage" />
        <dc:title />
      </cc:Work>
    </rdf:RDF>
  </metadata>
  <g
     id="layer1"
     transform="translate(-270.89993,-190.25677)">
    <path
       d="M 323.96875,190.71875 306.25,205.3125 l 18.3125,22.25 c 26.91622,40.00037 65.19984,128.19626 -33.40625,220.21875 l -0.3125,-0.4375 -17.40625,15.34375 105.96875,137.75 C 215.03542,578.12016 266.00494,680.40608 355.53125,875.625 L 375.75,866.7188 C 323.27234,716.53512 330.3368,660.29813 420.65625,654.03125 l 0.40625,0.53125 17.40625,-15.34375 -51.90625,-67.4375 c -21.54709,-40.67146 4.85203,-137.56206 74.375,-178.59375 l 0.375,0.4375 17.75,-14.59375 -155.09375,-188.3125 z M 306.8125,205.125 c 0,0 6.09185,6.10611 13.90625,16.90625 L 306.8125,205.125 z m 81.71875,370 3.71875,4.84375 c -1.34135,-1.47115 -2.58661,-3.10328 -3.71875,-4.84375 z"
       id="path3106"
       style="fill:#000000;fill-opacity:1;stroke:#000000;stroke-width:1px;stroke-linecap:butt;stroke-linejoin:miter;stroke-opacity:1"
       inkscape:connector-curvature="0" />
  </g>
</svg>
