<?xml version="1.0" encoding="UTF-8" standalone="no"?>
<!-- Created with Inkscape (http://www.inkscape.org/) -->

<svg
   xmlns:dc="http://purl.org/dc/elements/1.1/"
   xmlns:cc="http://creativecommons.org/ns#"
   xmlns:rdf="http://www.w3.org/1999/02/22-rdf-syntax-ns#"
   xmlns:svg="http://www.w3.org/2000/svg"
   xmlns="http://www.w3.org/2000/svg"
   xmlns:sodipodi="http://sodipodi.sourceforge.net/DTD/sodipodi-0.dtd"
   xmlns:inkscape="http://www.inkscape.org/namespaces/inkscape"
   width="744.09448819"
   height="1052.3622047"
   id="svg4150"
   version="1.1"
   inkscape:version="0.48.2 r9819"
   sodipodi:docname="New document 10">
  <defs
     id="defs4152" />
  <sodipodi:namedview
     id="base"
     pagecolor="#ffffff"
     bordercolor="#666666"
     borderopacity="1.0"
     inkscape:pageopacity="0.0"
     inkscape:pageshadow="2"
     inkscape:zoom="0.70910507"
     inkscape:cx="375"
     inkscape:cy="520"
     inkscape:document-units="px"
     inkscape:current-layer="layer1"
     showgrid="true"
     showguides="true"
     inkscape:snap-global="false"
     inkscape:window-width="1280"
     inkscape:window-height="752"
     inkscape:window-x="0"
     inkscape:window-y="0"
     inkscape:window-maximized="1">
    <inkscape:grid
       type="xygrid"
       id="grid4158" />
  </sodipodi:namedview>
  <metadata
     id="metadata4155">
    <rdf:RDF>
      <cc:Work
         rdf:about="">
        <dc:format>image/svg+xml</dc:format>
        <dc:type
           rdf:resource="http://purl.org/dc/dcmitype/StillImage" />
        <dc:title></dc:title>
      </cc:Work>
    </rdf:RDF>
  </metadata>
  <g
     inkscape:label="Layer 1"
     inkscape:groupmode="layer"
     id="layer1">
    <path
       style="fill:#000000;fill-rule:nonzero;stroke:#000000;stroke-width:0.94853479;stroke-opacity:1"
       d="M 389.96875 272.5625 L 389.96875 395.71875 L 270.03125 423.4375 L 270.03125 294.34375 L 260.65625 294.34375 L 260.65625 425.59375 L 148.0625 451.625 L 148.0625 492.25 L 260.65625 466.25 L 260.65625 581.8125 L 148.0625 608.03125 L 148.0625 648.78125 L 260.65625 622.53125 L 260.65625 751.25 L 270.03125 751.25 L 270.03125 620.34375 L 389.96875 592.40625 L 389.96875 732.25 L 399.34375 732.25 L 399.34375 590.21875 L 513.3125 563.65625 L 513.3125 522.9375 L 399.34375 549.5 L 399.34375 434.21875 L 513.09375 407.9375 L 514.5625 384.84375 L 514.5625 366.9375 L 399.34375 393.5625 L 399.34375 272.5625 L 389.96875 272.5625 z M 389.96875 436.375 L 389.96875 551.6875 L 270.03125 579.625 L 270.03125 464.09375 L 389.96875 436.375 z "
       id="rect4183-9" />
  </g>
</svg>
