<?xml version="1.0" encoding="UTF-8" standalone="no"?>
<!-- Created with Inkscape (http://www.inkscape.org/) -->

<svg
   xmlns:dc="http://purl.org/dc/elements/1.1/"
   xmlns:cc="http://creativecommons.org/ns#"
   xmlns:rdf="http://www.w3.org/1999/02/22-rdf-syntax-ns#"
   xmlns:svg="http://www.w3.org/2000/svg"
   xmlns="http://www.w3.org/2000/svg"
   xmlns:sodipodi="http://sodipodi.sourceforge.net/DTD/sodipodi-0.dtd"
   xmlns:inkscape="http://www.inkscape.org/namespaces/inkscape"
   width="368"
   height="481"
   id="svg4150"
   version="1.1"
   inkscape:version="0.48.2 r9819"
   sodipodi:docname="sharp.svg">
  <defs
     id="defs4152" />
  <sodipodi:namedview
     id="base"
     pagecolor="#ffffff"
     bordercolor="#666666"
     borderopacity="1.0"
     inkscape:pageopacity="0.0"
     inkscape:pageshadow="2"
     inkscape:zoom="0.70910507"
     inkscape:cx="92.954351"
     inkscape:cy="294.36348"
     inkscape:document-units="px"
     inkscape:current-layer="layer1"
     showgrid="true"
     showguides="true"
     inkscape:snap-global="false"
     inkscape:window-width="1280"
     inkscape:window-height="752"
     inkscape:window-x="0"
     inkscape:window-y="0"
     inkscape:window-maximized="1">
    <inkscape:grid
       type="xygrid"
       id="grid4158"
       empspacing="5"
       visible="true"
       enabled="true"
       snapvisiblegridlinesonly="true" />
  </sodipodi:namedview>
  <metadata
     id="metadata4155">
    <rdf:RDF>
      <cc:Work
         rdf:about="">
        <dc:format>image/svg+xml</dc:format>
        <dc:type
           rdf:resource="http://purl.org/dc/dcmitype/StillImage" />
        <dc:title />
      </cc:Work>
    </rdf:RDF>
  </metadata>
  <g
     inkscape:label="Layer 1"
     inkscape:groupmode="layer"
     id="layer1"
     transform="translate(0,-571.36218)">
    <path
       style="fill:#000000;fill-rule:nonzero;stroke:#000000;stroke-width:0.94853479;stroke-opacity:1"
       d="m 243.30501,572.94112 0,123.15625 -119.9375,27.71875 0,-129.09375 -9.375,0 0,131.25 -112.5937477,26.03125 0,40.625 112.5937477,-26 0,115.5625 -112.5937477,26.21875 0,40.75 112.5937477,-26.25 0,128.71873 9.375,0 0,-130.90623 119.9375,-27.9375 0,139.84373 9.375,0 0,-142.03123 113.96875,-26.5625 0,-40.71875 -113.96875,26.5625 0,-115.28125 113.75,-26.28125 1.46875,-23.09375 0,-17.90625 -115.21875,26.625 0,-121 -9.375,0 z m 0,163.8125 0,115.3125 -119.9375,27.9375 0,-115.53125 119.9375,-27.71875 z"
       id="rect4183-9"
       inkscape:connector-curvature="0" />
  </g>
</svg>
