<?xml version="1.0" encoding="utf-8"?>
<!-- Generator: Adobe Illustrator 16.0.0, SVG Export Plug-In . SVG Version: 6.00 Build 0)  -->
<!DOCTYPE svg PUBLIC "-//W3C//DTD SVG 1.1//EN" "http://www.w3.org/Graphics/SVG/1.1/DTD/svg11.dtd">
<svg version="1.1" id="clef_1_" xmlns:svg="http://www.w3.org/2000/svg"
	 xmlns="http://www.w3.org/2000/svg" xmlns:xlink="http://www.w3.org/1999/xlink" x="0px" y="0px" width="31.4985px"
	 height="77.641px" viewBox="31.599 295.098 125.994 310.485" enable-background="new 31.599 295.098 125.994 310.485"
	 xml:space="preserve">
<path id="clef" d="M95.151,525.148c-14.804-0.86-29.918-10.146-38.958-20.803c-10.48-12.356-14.801-29.156-13.694-42.952
	c3.251-40.537,47.334-64.497,63.653-82.203c10.923-11.852,13.213-17.63,15.652-23.726c4.723-11.799,5.484-25.624-3.88-26.656
	c-8.94-0.986-16.296,13.075-19.581,22.684c-2.954,8.643-4.917,17.314-3.141,30.34c0.799,5.852,22.785,169.203,23.156,171.735
	c3.702,25.304-10.769,35.774-25.541,37.637c-31.9,4.021-42.136-28.396-27.838-40.707c11.007-9.479,27.02-1.342,26.155,14.243
	c-0.766,13.804-14.301,14.21-17.759,13.895c5.309,9.521,45.332,14.496,39.187-28.521c-0.863-6.045-21.18-159.553-21.677-162.988
	c-3.727-25.716-4.295-46.071,9.104-69.824c4.946-8.769,12.763-14.43,16.601-13.689c0.844,0.163,1.684,0.473,2.351,1.161
	c10.278,10.59,13.431,34.073,12.305,47.563c-1.153,13.813-1.795,28.112-15.53,44.788c-5.315,6.453-21.534,20.669-30.833,28.836
	c-13.066,11.475-22.544,21.498-27.672,33.588c-5.763,13.589-6.738,30.695,6.278,45.873c7.487,8.575,19.91,14.66,30.365,14.79
	c29.07,0.36,37.56-13.969,37.831-30.197c0.447-26.722-31.813-36.824-45.076-18.451c-7.69,10.653-4.31,21.867,0.855,27.202
	c1.773,1.83,3.753,3.226,5.626,4.003c0.679,0.281,2.276,1.023,1.823,2.111c-0.377,0.904-1.11,0.955-1.776,0.875
	c-8.364-1.003-17.625-8.997-19.902-22.748c-3.318-20.043,14.368-43.818,39.615-39.929c16.528,2.545,31.874,16.767,30.528,43.25
	C142.219,509.024,123.402,526.791,95.151,525.148z"/>
</svg>
