<?xml version="1.0" encoding="UTF-8" standalone="no"?>
<!-- Created with Inkscape (http://www.inkscape.org/) -->

<svg
   xmlns:dc="http://purl.org/dc/elements/1.1/"
   xmlns:cc="http://creativecommons.org/ns#"
   xmlns:rdf="http://www.w3.org/1999/02/22-rdf-syntax-ns#"
   xmlns:svg="http://www.w3.org/2000/svg"
   xmlns="http://www.w3.org/2000/svg"
   xmlns:inkscape="http://www.inkscape.org/namespaces/inkscape"
   version="1.1"
   width="744.09448"
   height="1052.3622"
   id="svg2"
   style="enable-background:new">
  <defs
     id="defs4">
    <inkscape:path-effect
       effect="bend_path"
       id="path-effect3874" />
    <filter
       color-interpolation-filters="sRGB"
       id="filter3827">
      <feFlood
         result="result1"
         flood-color="rgb(255,0,105)"
         id="feFlood3829" />
      <feComposite
         in2="SourceGraphic"
         operator="in"
         result="result2"
         id="feComposite3831" />
    </filter>
    <filter
       x="0"
       y="0"
       width="1"
       height="1"
       color-interpolation-filters="sRGB"
       id="filter3837">
      <feColorMatrix
         result="fbSourceGraphic"
         values="-1 0 0 0 1 0 -1 0 0 1 0 0 -1 0 1 0 0 0 1 0 "
         in="SourceGraphic"
         id="feColorMatrix3839" />
      <feColorMatrix
         in="fbSourceGraphic"
         type="luminanceToAlpha"
         result="result14"
         id="feColorMatrix3841" />
      <feComposite
         in2="result14"
         operator="out"
         in="fbSourceGraphic"
         result="fbSourceGraphic"
         id="feComposite3843" />
      <feBlend
         in2="fbSourceGraphic"
         mode="normal"
         result="result15"
         id="feBlend3845" />
    </filter>
  </defs>
  <metadata
     id="metadata7">
    <rdf:RDF>
      <cc:Work
         rdf:about="">
        <dc:format>image/svg+xml</dc:format>
        <dc:type
           rdf:resource="http://purl.org/dc/dcmitype/StillImage" />
        <dc:title></dc:title>
      </cc:Work>
    </rdf:RDF>
  </metadata>
  <g
     id="layer1">
    <path
       d="m 372.25,415.25 c -17.815,0.013 -35.93023,2.16725 -53.625,6.65625 -80.89037,20.52115 -122.40213,82.44899 -92.6875,138.3125 l 0.78125,1.375 c 30.5258,55.03541 119.39601,82.91541 199.5,62.59375 C 507.10912,603.66635 548.58963,541.76976 518.875,485.90625 495.66044,442.26288 435.87501,415.2037 372.25,415.25 z m -14.8125,20.625 c 9.86549,-0.007 20.25117,1.74103 30.8125,5.40625 48.28039,16.75527 81.81115,67.51329 74.875,113.375 -6.93615,45.86171 -51.68836,69.44277 -99.96875,52.6875 C 315.34522,590.75136 281.91516,540.76499 288.125,495.125 l 0.15625,-1.15625 c 5.41887,-35.82946 33.92236,-58.06813 69.15625,-58.09375 z"
       id="path3967"
       style="fill:#000000;fill-rule:nonzero" />
  </g>
</svg>
